<mxfile host="app.diagrams.net" modified="2022-08-17T09:27:47.516Z" agent="5.0 (Macintosh; Intel Mac OS X 10_15_7) AppleWebKit/537.36 (KHTML, like Gecko) Chrome/104.0.5112.81 Safari/537.36" etag="95bj-CsDuL1bWPI6DU82" version="20.2.4" type="github">
  <diagram id="RSAHegjJtjdL5owUWeSS" name="Page-1">
    <mxGraphModel dx="2066" dy="1133" grid="1" gridSize="10" guides="1" tooltips="1" connect="1" arrows="1" fold="1" page="1" pageScale="1" pageWidth="850" pageHeight="1100" math="0" shadow="0">
      <root>
        <mxCell id="0" />
        <mxCell id="1" parent="0" />
        <mxCell id="hOYvzi7EcpCxlRi6kFeB-1" value="Data Owner" style="rounded=1;whiteSpace=wrap;html=1;" vertex="1" parent="1">
          <mxGeometry x="220" y="420" width="120" height="60" as="geometry" />
        </mxCell>
        <mxCell id="hOYvzi7EcpCxlRi6kFeB-2" value="Data Consumer" style="rounded=1;whiteSpace=wrap;html=1;" vertex="1" parent="1">
          <mxGeometry x="480" y="420" width="120" height="60" as="geometry" />
        </mxCell>
        <mxCell id="hOYvzi7EcpCxlRi6kFeB-3" value="" style="endArrow=classic;html=1;rounded=0;entryX=1;entryY=0.5;entryDx=0;entryDy=0;exitX=0;exitY=0.5;exitDx=0;exitDy=0;" edge="1" parent="1">
          <mxGeometry width="50" height="50" relative="1" as="geometry">
            <mxPoint x="480" y="439" as="sourcePoint" />
            <mxPoint x="340" y="439" as="targetPoint" />
          </mxGeometry>
        </mxCell>
        <mxCell id="hOYvzi7EcpCxlRi6kFeB-4" value="Request Data" style="text;html=1;align=center;verticalAlign=middle;resizable=0;points=[];autosize=1;strokeColor=none;fillColor=none;" vertex="1" parent="1">
          <mxGeometry x="360" y="410" width="100" height="30" as="geometry" />
        </mxCell>
        <mxCell id="hOYvzi7EcpCxlRi6kFeB-5" value="" style="endArrow=classic;html=1;rounded=0;entryX=-0.017;entryY=0.633;entryDx=0;entryDy=0;entryPerimeter=0;exitX=1;exitY=0.633;exitDx=0;exitDy=0;exitPerimeter=0;" edge="1" parent="1" source="hOYvzi7EcpCxlRi6kFeB-1" target="hOYvzi7EcpCxlRi6kFeB-2">
          <mxGeometry width="50" height="50" relative="1" as="geometry">
            <mxPoint x="400" y="600" as="sourcePoint" />
            <mxPoint x="450" y="550" as="targetPoint" />
          </mxGeometry>
        </mxCell>
        <mxCell id="hOYvzi7EcpCxlRi6kFeB-6" value="Data Response" style="text;html=1;align=center;verticalAlign=middle;resizable=0;points=[];autosize=1;strokeColor=none;fillColor=none;" vertex="1" parent="1">
          <mxGeometry x="355" y="460" width="110" height="30" as="geometry" />
        </mxCell>
      </root>
    </mxGraphModel>
  </diagram>
</mxfile>
